<svg id="visual" viewBox="0 0 900 600" width="900" height="600" xmlns="http://www.w3.org/2000/svg" xmlns:xlink="http://www.w3.org/1999/xlink" version="1.1"><rect x="0" y="0" width="900" height="600" fill="#001220"></rect><defs><linearGradient id="grad1_0" x1="33.3%" y1="0%" x2="100%" y2="100%"><stop offset="20%" stop-color="#001220" stop-opacity="1"></stop><stop offset="80%" stop-color="#001220" stop-opacity="1"></stop></linearGradient></defs><defs><linearGradient id="grad2_0" x1="0%" y1="0%" x2="66.7%" y2="100%"><stop offset="20%" stop-color="#001220" stop-opacity="1"></stop><stop offset="80%" stop-color="#001220" stop-opacity="1"></stop></linearGradient></defs><g transform="translate(900, 0)"><path d="M0 297.5C-30.5 275.8 -61 254.1 -101 243.9C-141 233.7 -190.5 235.1 -210.3 210.3C-230.2 185.6 -220.5 134.7 -230 95.3C-239.6 55.9 -268.5 27.9 -297.5 0L0 0Z" fill="#FBAE3C"></path></g><g transform="translate(0, 600)"><path d="M0 -297.5C41.9 -295.1 83.7 -292.8 112.9 -272.5C142.1 -252.2 158.6 -214 186.7 -186.7C214.8 -159.4 254.4 -143.1 274.8 -113.8C295.2 -84.6 296.3 -42.3 297.5 0L0 0Z" fill="#FBAE3C"></path></g></svg>