<svg id="visual" viewBox="0 0 960 540" width="960" height="540" xmlns="http://www.w3.org/2000/svg" xmlns:xlink="http://www.w3.org/1999/xlink" version="1.1"><rect x="0" y="0" width="960" height="540" fill="#001220"></rect><defs><linearGradient id="grad1_0" x1="43.8%" y1="0%" x2="100%" y2="100%"><stop offset="14.444444444444446%" stop-color="#001220" stop-opacity="1"></stop><stop offset="85.55555555555554%" stop-color="#001220" stop-opacity="1"></stop></linearGradient></defs><defs><linearGradient id="grad2_0" x1="0%" y1="0%" x2="56.3%" y2="100%"><stop offset="14.444444444444446%" stop-color="#001220" stop-opacity="1"></stop><stop offset="85.55555555555554%" stop-color="#001220" stop-opacity="1"></stop></linearGradient></defs><g transform="translate(960, 0)"><path d="M0 243C-28.4 222 -56.7 200.9 -74.6 180.2C-92.5 159.4 -99.9 138.9 -127.3 127.3C-154.6 115.6 -201.9 112.7 -224.5 93C-247.1 73.2 -245.1 36.6 -243 0L0 0Z" fill="#FBAE3C"></path></g><g transform="translate(0, 540)"><path d="M0 -243C22.4 -218.2 44.9 -193.5 76.9 -185.7C109 -177.9 150.6 -187.2 171.8 -171.8C193.1 -156.5 193.9 -116.5 202.3 -83.8C210.8 -51.1 226.9 -25.5 243 0L0 0Z" fill="#FBAE3C"></path></g></svg>