<svg id="visual" viewBox="0 0 960 540" width="960" height="540" xmlns="http://www.w3.org/2000/svg" xmlns:xlink="http://www.w3.org/1999/xlink" version="1.1"><rect x="0" y="0" width="960" height="540" fill="#001220"></rect><defs><linearGradient id="grad1_0" x1="43.8%" y1="0%" x2="100%" y2="100%"><stop offset="14.444444444444446%" stop-color="#001220" stop-opacity="1"></stop><stop offset="85.55555555555554%" stop-color="#001220" stop-opacity="1"></stop></linearGradient></defs><defs><linearGradient id="grad2_0" x1="0%" y1="0%" x2="56.3%" y2="100%"><stop offset="14.444444444444446%" stop-color="#001220" stop-opacity="1"></stop><stop offset="85.55555555555554%" stop-color="#001220" stop-opacity="1"></stop></linearGradient></defs><g transform="translate(960, 0)"><path d="M0 243C-22.5 217.8 -44.9 192.7 -76.5 184.8C-108.1 176.9 -148.9 186.3 -171.8 171.8C-194.8 157.4 -199.9 119.1 -208.8 86.5C-217.7 53.9 -230.3 26.9 -243 0L0 0Z" fill="#6600FF"></path></g><g transform="translate(0, 540)"><path d="M0 -243C21.4 -216.2 42.8 -189.3 75.4 -182C108 -174.7 151.8 -186.9 171.8 -171.8C191.8 -156.7 188 -114.3 195.9 -81.1C203.8 -47.9 223.4 -24 243 0L0 0Z" fill="#6600FF"></path></g></svg>